<?xml version="1.0" encoding="utf-8"?>
<svg version="1.1" id="lcnmqt_logo" xmlns="http://www.w3.org/2000/svg" xmlns:xlink="http://www.w3.org/1999/xlink" x="0px"
	 y="0px" viewBox="0 0 91.42 41.38" style="enable-background:new 0 0 91.42 41.38;" xml:space="preserve">
<path d="M46.81,33.81l-1.6-5.99c-0.62-2.31-1.99-3.22-3.62-3.23l0.35,1.3c0.94,0.2,1.63,0.92,1.99,2.27l1.6,5.99
	c0.36,1.36,0.12,2.34-0.59,2.98l0.35,1.3C46.7,37.61,47.44,36.13,46.81,33.81z"/>
<path d="M42.29,35.9c-0.1-0.38,0.21-0.62,0.58-0.72c0.35-0.09,0.77-0.04,0.87,0.33l1.36,5.06
	c0.1,0.38-0.22,0.67-0.57,0.77c-0.37,0.1-0.78,0-0.88-0.38L42.29,35.9z"/>
<path d="M40.05,35.62l-1.6-5.99c-0.36-1.35-0.12-2.33,0.59-2.97l-0.35-1.3c-1.4,0.83-2.14,2.3-1.52,4.61l1.6,5.99
	c0.62,2.33,1.99,3.23,3.62,3.25l-0.35-1.3C41.11,37.71,40.42,36.98,40.05,35.62z"/>
<path fill="currentColor" d="M0.6,19.1c-0.3,0-0.6-0.18-0.6-0.52V4.96c0-0.34,0.32-0.48,0.66-0.48c0.32,0,0.66,0.14,0.66,0.48v12.92h5.7
	c0.3,0,0.44,0.3,0.44,0.6c0,0.32-0.14,0.62-0.44,0.62C7.02,19.1,0.6,19.1,0.6,19.1z"/>
<path fill="currentColor" d="M10.58,11.2h3.14c0.32,0,0.5,0.28,0.5,0.6c0,0.26-0.14,0.54-0.5,0.54h-3.14v5.54h6.4c0.32,0,0.5,0.3,0.5,0.62
	c0,0.28-0.14,0.6-0.5,0.6H9.86c-0.3,0-0.6-0.18-0.6-0.52V4.98c0-0.34,0.3-0.5,0.6-0.5h7.12c0.36,0,0.5,0.3,0.5,0.58
	c0,0.34-0.18,0.64-0.5,0.64h-6.4V11.2z"/>
<path fill="currentColor" d="M27.46,5.7c-1.86,0-2.88,0.96-2.88,3.04v6.2c0,2.1,1.02,3.06,2.96,3.06c2.38,0,2.6-1.5,2.72-2.46
	c0.04-0.32,0.24-0.52,0.66-0.52c0.46,0,0.66,0.16,0.66,0.82c0,1.82-1.54,3.38-4.18,3.38c-2.26,0-4.14-1.16-4.14-4.28v-6.2
	c0-3.1,1.92-4.26,4.2-4.26c2.62,0,4.12,1.54,4.12,3.34c0,0.66-0.2,0.8-0.66,0.8s-0.64-0.22-0.66-0.5C30.22,7.26,29.84,5.7,27.46,5.7
	z"/>
<path fill="currentColor" d="M40.98,12.08H35.2v6.5c0,0.34-0.34,0.52-0.66,0.52c-0.34,0-0.66-0.18-0.66-0.52V4.96
	c0-0.34,0.32-0.48,0.66-0.48c0.32,0,0.66,0.14,0.66,0.48v5.98h5.78V4.96c0-0.34,0.32-0.48,0.66-0.48c0.32,0,0.66,0.14,0.66,0.48
	v13.62c0,0.34-0.34,0.52-0.66,0.52c-0.34,0-0.66-0.18-0.66-0.52V12.08z"/>
<path fill="currentColor" d="M44.24,18.54c0-0.04,0-0.1,0.02-0.14l4.18-13.58c0.1-0.32,0.44-0.46,0.78-0.46c0.36,0,0.7,0.16,0.8,0.46
	l4.16,13.58c0,0.04,0.02,0.08,0.02,0.12c0,0.32-0.44,0.58-0.8,0.58c-0.22,0-0.42-0.1-0.5-0.34l-0.92-3.08h-5.54l-0.92,3.08
	C45.46,19,45.24,19.1,45,19.1C44.66,19.1,44.24,18.88,44.24,18.54z M51.64,14.54l-2.42-8.06l-2.44,8.06H51.64z"/>
<path fill="currentColor" d="M54.72,2.12c-0.06,0.02-0.12,0.06-0.18,0.06c-0.22,0-0.42-0.24-0.42-0.52c0-0.16,0.08-0.34,0.26-0.44l2.08-1.12
	C56.56,0.04,56.68,0,56.8,0s0.24,0.04,0.34,0.1l2.08,1.12c0.18,0.08,0.26,0.28,0.26,0.46c0,0.26-0.18,0.48-0.4,0.48
	c-0.06,0-0.14-0.04-0.2-0.06L56.8,1L54.72,2.12z M56.14,4.96c0-0.34,0.32-0.48,0.66-0.48c0.32,0,0.66,0.14,0.66,0.48v13.62
	c0,0.34-0.34,0.52-0.66,0.52c-0.34,0-0.66-0.18-0.66-0.52V4.96z"/>
<path fill="currentColor" d="M67.38,18.34L61.82,7.52v11.06c0,0.34-0.34,0.52-0.66,0.52c-0.34,0-0.66-0.18-0.66-0.52V4.98
	c0-0.36,0.32-0.5,0.66-0.5c0.48,0,0.78,0.42,1.04,0.92l5.4,10.64V4.96c0-0.34,0.32-0.48,0.66-0.48c0.32,0,0.66,0.14,0.66,0.48v13.62
	c0,0.34-0.34,0.52-0.66,0.52C67.88,19.1,67.58,18.74,67.38,18.34z"/>
<path fill="currentColor" d="M71.8,14.94v-6.2c0-3.1,1.82-4.26,4.16-4.26c2.34,0,4.16,1.16,4.16,4.26v6.2c0,3.12-1.82,4.28-4.16,4.28
	S71.8,18.06,71.8,14.94z M78.8,8.74c0-2.08-1.06-3.04-2.84-3.04s-2.84,0.96-2.84,3.04v6.2c0,2.1,1.06,3.06,2.84,3.06
	s2.84-0.96,2.84-3.06V8.74z"/>
<path fill="currentColor" d="M89.88,18.34L84.32,7.52v11.06c0,0.34-0.34,0.52-0.66,0.52c-0.34,0-0.66-0.18-0.66-0.52V4.98
	c0-0.36,0.32-0.5,0.66-0.5c0.48,0,0.78,0.42,1.04,0.92l5.4,10.64V4.96c0-0.34,0.32-0.48,0.66-0.48c0.32,0,0.66,0.14,0.66,0.48v13.62
	c0,0.34-0.34,0.52-0.66,0.52C90.38,19.1,90.08,18.74,89.88,18.34z"/>
<path fill="currentColor" d="M7.55,33.62c-0.16,0.3-0.36,0.42-0.54,0.42s-0.36-0.12-0.52-0.42l-3.3-6.34v11.3c0,0.34-0.34,0.52-0.66,0.52
	c-0.34,0-0.66-0.18-0.66-0.52V25.12c0-0.48,0.32-0.64,0.66-0.64c0.48,0,0.8,0.42,1.06,0.92l3.44,6.64l3.44-6.64
	c0.26-0.5,0.58-0.92,1.06-0.92c0.36,0,0.66,0.16,0.66,0.64v13.46c0,0.34-0.32,0.52-0.66,0.52c-0.32,0-0.66-0.18-0.66-0.52V27.34
	L7.55,33.62z"/>
<path fill="currentColor" d="M14.13,38.54c0-0.04,0-0.1,0.02-0.14l4.18-13.58c0.1-0.32,0.44-0.46,0.78-0.46c0.36,0,0.7,0.16,0.8,0.46
	l4.16,13.58c0,0.04,0.02,0.08,0.02,0.12c0,0.32-0.44,0.58-0.8,0.58c-0.22,0-0.42-0.1-0.5-0.34l-0.92-3.08h-5.54l-0.92,3.08
	c-0.06,0.24-0.28,0.34-0.52,0.34C14.55,39.1,14.13,38.88,14.13,38.54z M21.53,34.54l-2.42-8.06l-2.44,8.06H21.53z"/>
<path fill="currentColor" d="M32.91,38.34l-5.56-10.82v11.06c0,0.34-0.34,0.52-0.66,0.52c-0.34,0-0.66-0.18-0.66-0.52v-13.6
	c0-0.36,0.32-0.5,0.66-0.5c0.48,0,0.78,0.42,1.04,0.92l5.4,10.64V24.96c0-0.34,0.32-0.48,0.66-0.48c0.32,0,0.66,0.14,0.66,0.48
	v13.62c0,0.34-0.34,0.52-0.66,0.52C33.41,39.1,33.11,38.74,32.91,38.34z"/>
<path fill="currentColor" d="M56.51,24.96c0-0.34,0.32-0.48,0.66-0.48c0.32,0,0.66,0.14,0.66,0.48v9.98c0,3.12-1.86,4.28-4.2,4.28
	c-2.36,0-4.2-1.16-4.2-4.28v-9.98c0-0.34,0.34-0.48,0.66-0.48c0.34,0,0.66,0.14,0.66,0.48v9.98c0,2.08,1.08,3.06,2.88,3.06
	s2.88-0.98,2.88-3.06V24.96z"/>
<path fill="currentColor" d="M59.61,38.54c0-0.04,0-0.1,0.02-0.14l4.18-13.58c0.1-0.32,0.44-0.46,0.78-0.46c0.36,0,0.7,0.16,0.8,0.46
	l4.16,13.58c0,0.04,0.02,0.08,0.02,0.12c0,0.32-0.44,0.58-0.8,0.58c-0.22,0-0.42-0.1-0.5-0.34l-0.92-3.08h-5.54l-0.92,3.08
	c-0.06,0.24-0.28,0.34-0.52,0.34C60.03,39.1,59.61,38.88,59.61,38.54z M67.01,34.54l-2.42-8.06l-2.44,8.06H67.01z"/>
<path fill="currentColor" d="M78.39,38.34l-5.56-10.82v11.06c0,0.34-0.34,0.52-0.66,0.52c-0.34,0-0.66-0.18-0.66-0.52v-13.6
	c0-0.36,0.32-0.5,0.66-0.5c0.48,0,0.78,0.42,1.04,0.92l5.4,10.64V24.96c0-0.34,0.32-0.48,0.66-0.48c0.32,0,0.66,0.14,0.66,0.48
	v13.62c0,0.34-0.34,0.52-0.66,0.52C78.89,39.1,78.59,38.74,78.39,38.34z"/>
<path fill="currentColor" d="M90.27,24.48c0.34,0,0.5,0.3,0.5,0.6c0,0.32-0.16,0.64-0.5,0.64h-3.34v12.86c0,0.34-0.34,0.52-0.66,0.52
	c-0.34,0-0.66-0.18-0.66-0.52V25.72h-3.36c-0.32,0-0.5-0.3-0.5-0.62c0-0.3,0.16-0.62,0.5-0.62C82.25,24.48,90.27,24.48,90.27,24.48z
	"/>
</svg>
