<?xml version="1.0" encoding="utf-8"?>
<!-- Generator: Adobe Illustrator 27.9.1, SVG Export Plug-In . SVG Version: 6.00 Build 0)  -->
<svg version="1.1" id="Calque_1" xmlns="http://www.w3.org/2000/svg" xmlns:xlink="http://www.w3.org/1999/xlink" x="0px" y="0px"
	 viewBox="0 0 300 300" style="enable-background:new 0 0 300 300;" xml:space="preserve">
<style type="text/css">
	.st0{fill:#19B0F2;}
</style>
<path class="st0" d="M155.46,202.14c-1.8-6.7,3.76-11.13,10.45-12.92c6.29-1.68,13.71-0.73,15.51,5.97l24.24,90.46
	c1.8,6.7-3.95,12.02-10.24,13.71c-6.69,1.79-13.92-0.06-15.72-6.75L155.46,202.14z"/>
<path class="st0" d="M236.28,164.74L207.62,57.76C196.56,16.5,172.1,0.34,142.98,0l6.24,23.27c16.71,3.57,29.17,16.52,35.62,40.6
	l28.66,106.98c6.52,24.31,2.22,41.83-10.46,53.31l6.24,23.28C234.33,232.56,247.41,206.28,236.28,164.74z"/>
<path class="st0" d="M115.5,197.1L86.84,90.13C80.38,66.04,84.7,48.6,97.39,37.15l-6.24-23.27C66.11,28.74,53,54.96,64.06,96.23
	l28.66,106.98c11.13,41.54,35.61,57.76,64.73,58.11l-6.24-23.28C134.5,234.44,122.02,221.42,115.5,197.1z"/>
</svg>
